<svg xmlns="http://www.w3.org/2000/svg" xmlns:xlink="http://www.w3.org/1999/xlink" width="500" zoomAndPan="magnify" viewBox="0 0 375 374.999991" height="500" preserveAspectRatio="xMidYMid meet" version="1.0"><defs><clipPath id="ed88ad8d9d"><path d="M 15.003906 15.003906 L 270 15.003906 L 270 360.003906 L 15.003906 360.003906 Z M 15.003906 15.003906 " clip-rule="nonzero"/></clipPath></defs><path fill="#000000" d="M 89.953125 171.246094 C 87.972656 169.660156 84.800781 170.058594 82.816406 172.039062 L 66.160156 192.660156 L 61.003906 187.902344 C 59.023438 185.917969 55.851562 185.917969 53.867188 187.902344 C 51.886719 189.886719 51.886719 193.058594 53.867188 195.039062 C 53.867188 195.039062 63.386719 203.765625 63.386719 203.765625 C 65.765625 205.746094 69.332031 204.953125 70.523438 203.367188 L 90.351562 178.386719 C 92.332031 176.003906 93.125 173.625 89.953125 171.246094 Z M 89.953125 171.246094 " fill-opacity="1" fill-rule="nonzero"/><g clip-path="url(#ed88ad8d9d)"><path fill="#000000" d="M 265.230469 218.832031 C 262.453125 218.832031 260.472656 221.210938 260.472656 223.59375 L 260.472656 350.09375 L 25.316406 350.09375 L 25.316406 24.917969 L 189.09375 24.917969 L 189.09375 90.746094 C 189.09375 93.523438 191.074219 95.902344 193.851562 95.902344 L 259.679688 95.902344 L 259.679688 102.246094 C 259.679688 105.023438 262.058594 107.003906 264.4375 107.003906 C 266.816406 107.003906 269.195312 104.625 269.195312 102.246094 L 269.195312 90.746094 C 269.195312 89.558594 268.800781 88.367188 267.609375 87.179688 L 197.816406 16.59375 C 197.023438 15.402344 195.4375 15.003906 194.246094 15.003906 L 20.558594 15.003906 C 17.78125 15.003906 15.800781 17.386719 15.800781 19.765625 L 15.800781 355.246094 C 15.800781 358.023438 18.179688 360.003906 20.558594 360.003906 L 265.230469 360.003906 C 268.003906 360.003906 269.988281 357.625 269.988281 355.246094 L 269.988281 223.59375 C 269.988281 220.816406 268.003906 218.832031 265.230469 218.832031 Z M 265.230469 218.832031 " fill-opacity="1" fill-rule="nonzero"/></g><path fill="#000000" d="M 235.09375 117.710938 C 235.09375 114.9375 232.710938 112.953125 230.332031 112.953125 L 112.160156 112.953125 C 109.386719 112.953125 107.402344 115.332031 107.402344 117.710938 C 107.402344 120.09375 109.78125 122.472656 112.160156 122.472656 L 230.332031 122.472656 C 233.109375 122.867188 235.09375 120.488281 235.09375 117.710938 Z M 235.09375 117.710938 " fill-opacity="1" fill-rule="nonzero"/><path fill="#000000" d="M 112.160156 138.332031 C 109.386719 138.332031 107.402344 140.710938 107.402344 143.09375 C 107.402344 145.472656 109.78125 147.851562 112.160156 147.851562 L 197.023438 147.851562 C 199.800781 147.851562 201.78125 145.472656 201.78125 143.09375 C 201.78125 140.710938 199.800781 138.332031 197.023438 138.332031 Z M 112.160156 138.332031 " fill-opacity="1" fill-rule="nonzero"/><path fill="#000000" d="M 89.953125 105.816406 C 87.972656 104.230469 84.800781 104.625 82.816406 106.609375 L 66.160156 127.230469 L 61.003906 122.472656 C 59.023438 120.488281 55.851562 120.488281 53.867188 122.472656 C 51.886719 124.453125 51.886719 127.625 53.867188 129.609375 C 53.867188 129.609375 63.386719 138.332031 63.386719 138.332031 C 65.765625 140.316406 69.332031 139.523438 70.523438 137.9375 L 90.351562 112.953125 C 92.332031 110.574219 92.730469 108.195312 89.953125 105.816406 Z M 89.953125 105.816406 " fill-opacity="1" fill-rule="nonzero"/><path fill="#000000" d="M 89.953125 234.300781 C 87.972656 232.710938 84.800781 233.109375 82.816406 235.09375 L 66.160156 255.710938 L 61.003906 250.953125 C 59.023438 248.972656 55.851562 248.972656 53.867188 250.953125 C 51.886719 252.9375 51.886719 256.109375 53.867188 258.09375 C 53.867188 258.09375 63.386719 266.816406 63.386719 266.816406 C 65.765625 268.800781 69.332031 268.003906 70.523438 266.417969 L 90.351562 241.4375 C 92.332031 239.453125 92.730469 236.679688 89.953125 234.300781 Z M 89.953125 234.300781 " fill-opacity="1" fill-rule="nonzero"/><path fill="#000000" d="M 356.4375 105.023438 L 342.160156 93.917969 L 351.679688 81.625 C 353.660156 79.246094 355.644531 75.28125 351.28125 71.710938 L 330.660156 55.453125 C 327.488281 52.679688 322.332031 52.679688 319.558594 56.246094 L 310.039062 68.539062 C 309.246094 68.144531 308.058594 67.746094 307.265625 68.144531 C 306.074219 68.144531 304.886719 68.9375 304.09375 70.125 L 287.4375 91.539062 C 286.246094 93.523438 286.246094 95.902344 287.4375 97.488281 L 224.78125 177.195312 L 112.160156 177.195312 C 109.386719 177.195312 107.402344 179.574219 107.402344 181.953125 C 107.402344 184.332031 109.78125 186.710938 112.160156 186.710938 L 216.851562 186.710938 L 204.953125 202.179688 L 112.160156 202.179688 C 109.386719 202.179688 107.402344 204.558594 107.402344 206.9375 C 107.402344 209.316406 109.78125 211.695312 112.160156 211.695312 L 197.417969 211.695312 L 174.816406 241.4375 L 112.160156 241.4375 C 109.386719 241.4375 107.402344 243.816406 107.402344 246.195312 C 107.402344 248.574219 109.78125 250.953125 112.160156 250.953125 L 166.886719 250.953125 L 156.972656 263.644531 C 156.972656 263.644531 156.574219 264.832031 156.179688 266.417969 L 112.160156 266.417969 C 109.386719 266.417969 107.402344 268.800781 107.402344 271.179688 C 107.402344 273.558594 109.78125 275.9375 112.160156 275.9375 L 153.003906 275.9375 C 149.039062 288.625 143.886719 306.472656 143.886719 306.472656 C 143.09375 308.453125 143.886719 310.832031 145.472656 312.023438 C 147.058594 313.210938 149.4375 313.210938 151.023438 312.417969 C 151.023438 312.417969 188.695312 289.816406 189.488281 289.023438 L 319.160156 122.074219 C 319.953125 122.472656 320.746094 122.867188 321.9375 122.867188 C 323.523438 122.867188 325.109375 122.074219 325.902344 120.886719 L 339.386719 103.4375 L 346.523438 108.988281 L 306.074219 161.730469 C 304.488281 164.109375 304.886719 166.886719 306.867188 168.867188 C 308.851562 170.851562 312.023438 170.058594 314.003906 168.074219 L 357.625 112.160156 C 359.210938 109.78125 358.417969 106.609375 356.4375 105.023438 Z M 156.972656 297.746094 L 164.109375 273.953125 C 166.886719 275.539062 169.265625 277.125 171.644531 278.710938 C 174.023438 280.695312 176.402344 282.679688 178.386719 284.660156 Z M 321.144531 111.765625 L 297.746094 93.523438 L 307.660156 80.832031 L 331.058594 99.074219 Z M 321.144531 111.765625 " fill-opacity="1" fill-rule="nonzero"/></svg>