<svg xmlns="http://www.w3.org/2000/svg" xmlns:xlink="http://www.w3.org/1999/xlink" width="500" zoomAndPan="magnify" viewBox="0 0 375 374.999991" height="500" preserveAspectRatio="xMidYMid meet" version="1.0"><defs><clipPath id="c72219d821"><path d="M 36.59375 22 L 337.34375 22 L 337.34375 354.597656 L 36.59375 354.597656 Z M 36.59375 22 " clip-rule="nonzero"/></clipPath></defs><g clip-path="url(#c72219d821)"><path fill="#000000" d="M 331.742188 108.152344 L 248.429688 108.152344 C 268.238281 100.191406 288.945312 86.484375 304.113281 62.808594 C 305.703125 60.316406 304.941406 56.996094 302.449219 55.402344 C 299.957031 53.808594 296.632812 54.570312 295.039062 57.0625 C 273.570312 90.707031 238.734375 102.269531 214.496094 106.214844 C 232.363281 96.105469 253.417969 80.671875 256.328125 62.394531 C 258.058594 51.457031 253.347656 41.210938 242.199219 31.933594 C 231.046875 22.589844 220.660156 20.097656 211.449219 24.457031 C 198.429688 30.550781 191.089844 49.863281 186.933594 68.972656 C 182.777344 49.863281 175.4375 30.550781 162.417969 24.457031 C 153.207031 20.167969 142.886719 22.660156 131.667969 31.933594 C 120.519531 41.210938 115.808594 51.386719 117.542969 62.394531 C 120.519531 80.738281 141.574219 96.175781 159.441406 106.285156 C 135.199219 102.40625 100.367188 90.847656 78.757812 57.0625 C 77.167969 54.570312 73.84375 53.808594 71.347656 55.402344 C 68.855469 56.996094 68.09375 60.316406 69.6875 62.808594 C 84.785156 86.554688 105.492188 100.191406 125.367188 108.152344 L 42.191406 108.152344 C 39.214844 108.152344 36.859375 110.574219 36.859375 113.484375 L 36.859375 188.523438 C 36.859375 191.5 39.285156 193.855469 42.191406 193.855469 L 52.925781 193.855469 L 52.925781 349.265625 C 52.925781 352.242188 55.351562 354.597656 58.261719 354.597656 L 315.609375 354.597656 C 318.585938 354.597656 320.941406 352.175781 320.941406 349.265625 L 320.941406 193.921875 L 331.675781 193.921875 C 334.652344 193.921875 337.007812 191.5 337.007812 188.59375 L 337.007812 113.484375 C 337.078125 110.574219 334.722656 108.152344 331.742188 108.152344 Z M 216.019531 34.148438 C 217.40625 33.527344 218.929688 33.179688 220.523438 33.179688 C 224.816406 33.179688 229.734375 35.535156 235.34375 40.171875 C 243.445312 46.886719 246.839844 53.601562 245.730469 60.664062 C 242.820312 78.800781 211.3125 96.730469 192.683594 105.246094 C 194.136719 83.992188 200.507812 41.417969 216.019531 34.148438 Z M 128.207031 60.664062 C 127.097656 53.601562 130.492188 46.957031 138.59375 40.171875 C 144.203125 35.535156 149.191406 33.179688 153.414062 33.179688 C 155.007812 33.179688 156.53125 33.527344 157.917969 34.148438 C 173.5 41.417969 179.800781 84.0625 181.253906 105.246094 C 162.625 96.730469 131.113281 78.800781 128.207031 60.664062 Z M 47.59375 183.195312 L 47.59375 118.882812 L 154.800781 118.882812 L 154.800781 183.195312 Z M 63.660156 193.921875 L 154.800781 193.921875 L 154.800781 344.003906 L 63.660156 344.003906 Z M 165.535156 343.9375 L 165.535156 118.882812 L 179.800781 118.882812 C 180.355469 118.882812 180.976562 118.882812 181.53125 118.882812 C 182.433594 118.882812 183.261719 118.882812 183.957031 118.882812 L 190.050781 118.882812 C 190.742188 118.882812 191.574219 118.882812 192.472656 118.882812 C 192.957031 118.882812 193.652344 118.882812 194.207031 118.882812 L 208.472656 118.882812 L 208.472656 343.9375 Z M 219.136719 343.9375 L 219.136719 193.921875 L 310.273438 193.921875 L 310.273438 344.003906 L 219.136719 344.003906 Z M 326.34375 183.195312 L 219.136719 183.195312 L 219.136719 118.882812 L 326.34375 118.882812 Z M 326.34375 183.195312 " fill-opacity="1" fill-rule="nonzero"/></g></svg>