<svg xmlns="http://www.w3.org/2000/svg" xmlns:xlink="http://www.w3.org/1999/xlink" width="500" zoomAndPan="magnify" viewBox="0 0 375 374.999991" height="500" preserveAspectRatio="xMidYMid meet" version="1.0"><defs><clipPath id="331cfe19fe"><path d="M 3.984375 63.855469 L 370.734375 63.855469 L 370.734375 311.355469 L 3.984375 311.355469 Z M 3.984375 63.855469 " clip-rule="nonzero"/></clipPath></defs><g clip-path="url(#331cfe19fe)"><path fill="#000000" d="M 367.265625 181.1875 L 307.445312 109.570312 C 304.644531 106.214844 300.539062 104.292969 296.175781 104.292969 L 242.347656 104.292969 L 242.347656 78.613281 C 242.347656 70.496094 235.757812 63.894531 227.65625 63.894531 L 18.648438 63.894531 C 10.542969 63.894531 3.953125 70.496094 3.953125 78.613281 L 3.953125 262.253906 C 3.953125 270.367188 10.542969 276.972656 18.648438 276.972656 L 48.203125 276.972656 C 50.351562 296.222656 66.695312 311.242188 86.480469 311.242188 C 106.265625 311.242188 122.609375 296.222656 124.757812 276.972656 L 227.65625 276.972656 C 230.332031 276.972656 232.832031 276.238281 234.996094 274.984375 C 237.15625 276.234375 239.65625 276.964844 242.324219 276.964844 L 260.882812 276.964844 C 263.03125 296.21875 279.375 311.242188 299.164062 311.242188 C 318.949219 311.242188 335.292969 296.21875 337.441406 276.964844 L 356 276.964844 C 364.097656 276.964844 370.6875 270.363281 370.6875 262.25 L 370.6875 190.628906 C 370.6875 187.179688 369.472656 183.824219 367.265625 181.1875 Z M 18.648438 78.632812 L 227.632812 78.613281 L 227.640625 118.921875 C 227.640625 118.949219 227.632812 118.980469 227.632812 119.007812 L 227.632812 262.234375 L 123.566406 262.234375 C 119.015625 246.003906 104.121094 234.066406 86.480469 234.066406 C 68.84375 234.066406 53.945312 246.007812 49.394531 262.238281 L 18.667969 262.253906 Z M 86.480469 296.503906 C 73.351562 296.503906 62.667969 285.804688 62.667969 272.65625 C 62.667969 259.503906 73.351562 248.804688 86.480469 248.804688 C 99.609375 248.804688 110.292969 259.503906 110.292969 272.65625 C 110.292969 285.804688 99.609375 296.503906 86.480469 296.503906 Z M 299.164062 296.503906 C 286.03125 296.503906 275.351562 285.804688 275.351562 272.65625 C 275.351562 259.503906 286.03125 248.804688 299.164062 248.804688 C 312.292969 248.804688 322.972656 259.503906 322.972656 272.65625 C 322.972656 285.804688 312.292969 296.503906 299.164062 296.503906 Z M 336.246094 262.226562 C 331.691406 246 316.796875 234.066406 299.164062 234.066406 C 281.523438 234.066406 266.628906 246.003906 262.078125 262.230469 L 242.347656 262.25 L 242.347656 119.03125 L 296.160156 119.023438 L 355.976562 190.628906 L 356 262.226562 Z M 336.246094 262.226562 " fill-opacity="1" fill-rule="nonzero"/></g><path fill="#000000" d="M 294.929688 135.289062 C 293.539062 133.613281 291.472656 132.644531 289.296875 132.644531 L 256.992188 132.644531 C 252.941406 132.644531 249.660156 135.9375 249.660156 139.992188 L 249.660156 176.71875 C 249.660156 180.777344 252.941406 184.066406 256.992188 184.066406 L 319.851562 184.066406 C 326.070312 184.066406 329.464844 176.804688 325.488281 172.015625 Z M 294.929688 135.289062 " fill-opacity="1" fill-rule="nonzero"/></svg>