<svg xmlns="http://www.w3.org/2000/svg" xmlns:xlink="http://www.w3.org/1999/xlink" width="500" zoomAndPan="magnify" viewBox="0 0 375 374.999991" height="500" preserveAspectRatio="xMidYMid meet" version="1.0"><defs><clipPath id="2583ff3c04"><path d="M 62 122 L 340 122 L 340 337.3125 L 62 337.3125 Z M 62 122 " clip-rule="nonzero"/></clipPath></defs><path fill="#000000" d="M 215.886719 104.820312 L 188.882812 91.832031 C 188.105469 91.453125 187.1875 91.453125 186.398438 91.832031 L 109.667969 128.675781 C 108.675781 129.152344 108.042969 130.152344 108.042969 131.257812 C 108.042969 132.359375 108.671875 133.359375 109.664062 133.839844 L 136.664062 146.835938 C 137.0625 147.027344 137.484375 147.121094 137.914062 147.121094 C 138.335938 147.121094 138.765625 147.023438 139.15625 146.835938 L 215.886719 109.988281 C 216.882812 109.511719 217.507812 108.503906 217.507812 107.402344 C 217.507812 106.296875 216.882812 105.296875 215.886719 104.820312 Z M 215.886719 104.820312 " fill-opacity="1" fill-rule="nonzero"/><path fill="#000000" d="M 96.5 144.5625 C 95.664062 145.085938 95.15625 146.003906 95.15625 146.988281 L 95.15625 232.097656 C 95.15625 233.199219 95.789062 234.199219 96.78125 234.679688 L 176.507812 273.046875 C 176.898438 273.238281 177.328125 273.320312 177.75 273.320312 C 178.285156 273.320312 178.8125 273.175781 179.28125 272.890625 C 180.113281 272.367188 180.621094 271.445312 180.621094 270.464844 L 180.621094 185.355469 C 180.621094 184.253906 179.992188 183.246094 178.996094 182.769531 L 99.265625 144.410156 C 98.382812 143.980469 97.335938 144.035156 96.5 144.5625 Z M 115.546875 184.957031 C 116.695312 182.554688 119.164062 181 121.828125 181 C 122.882812 181 123.898438 181.238281 124.867188 181.707031 L 154.246094 195.828125 C 155.925781 196.632812 157.1875 198.046875 157.800781 199.8125 C 158.417969 201.570312 158.3125 203.464844 157.5 205.152344 C 155.90625 208.476562 151.628906 210.078125 148.1875 208.398438 L 118.808594 194.277344 C 117.128906 193.476562 115.871094 192.066406 115.25 190.308594 C 114.628906 188.550781 114.734375 186.648438 115.546875 184.957031 Z M 115.546875 184.957031 " fill-opacity="1" fill-rule="nonzero"/><path fill="#000000" d="M 194.605469 185.355469 L 194.605469 270.464844 C 194.605469 271.449219 195.109375 272.371094 195.945312 272.894531 C 196.410156 273.179688 196.941406 273.324219 197.472656 273.324219 C 197.894531 273.324219 198.324219 273.238281 198.714844 273.050781 L 278.449219 234.683594 C 279.441406 234.203125 280.070312 233.203125 280.070312 232.101562 L 280.070312 147.039062 C 280.070312 146.046875 279.566406 145.132812 278.730469 144.609375 C 277.898438 144.085938 276.84375 144.027344 275.960938 144.449219 L 196.226562 182.769531 C 195.230469 183.25 194.605469 184.257812 194.605469 185.355469 Z M 194.605469 185.355469 " fill-opacity="1" fill-rule="nonzero"/><path fill="#000000" d="M 265.578125 128.746094 L 238.625 115.769531 C 237.839844 115.390625 236.925781 115.390625 236.136719 115.769531 L 159.394531 152.609375 C 158.402344 153.085938 157.765625 154.085938 157.765625 155.191406 C 157.765625 156.292969 158.402344 157.300781 159.394531 157.773438 L 186.371094 170.746094 C 186.761719 170.933594 187.1875 171.035156 187.613281 171.035156 C 188.039062 171.035156 188.464844 170.933594 188.859375 170.746094 L 265.578125 133.90625 C 266.570312 133.429688 267.203125 132.429688 267.203125 131.324219 C 267.199219 130.226562 266.570312 129.226562 265.578125 128.746094 Z M 265.578125 128.746094 " fill-opacity="1" fill-rule="nonzero"/><path fill="#000000" d="M 52.933594 246.398438 C 53.820312 246.398438 54.726562 246.230469 55.605469 245.878906 C 59.28125 244.394531 61.058594 240.226562 59.578125 236.550781 C 36.753906 179.890625 53.429688 116.050781 101.074219 77.699219 C 150.582031 37.835938 219.480469 37.855469 268.644531 73.488281 L 255.101562 84.382812 C 252.835938 86.203125 251.898438 89.203125 252.714844 91.984375 C 253.53125 94.761719 255.945312 96.785156 258.828125 97.09375 L 300.246094 101.542969 C 300.503906 101.570312 300.757812 101.589844 301.023438 101.589844 C 304.636719 101.589844 307.746094 98.867188 308.140625 95.191406 L 312.609375 53.8125 C 312.921875 50.929688 311.460938 48.144531 308.917969 46.757812 C 306.371094 45.363281 303.246094 45.636719 300.980469 47.46875 L 280.1875 64.199219 C 225.730469 22.558594 147.785156 21.683594 92.078125 66.535156 C 39.484375 108.875 21.082031 179.351562 46.277344 241.902344 C 47.402344 244.699219 50.09375 246.398438 52.933594 246.398438 Z M 52.933594 246.398438 " fill-opacity="1" fill-rule="nonzero"/><g clip-path="url(#2583ff3c04)"><path fill="#000000" d="M 328.398438 126.796875 C 326.882812 123.148438 322.691406 121.414062 319.019531 122.929688 C 315.363281 124.445312 313.628906 128.640625 315.144531 132.289062 C 338.457031 188.425781 321.613281 254.300781 274.195312 292.488281 C 224.6875 332.347656 155.789062 332.320312 106.617188 296.6875 L 120.152344 285.789062 C 122.414062 283.976562 123.351562 280.972656 122.535156 278.199219 C 121.714844 275.414062 119.304688 273.394531 116.425781 273.085938 L 75.015625 268.617188 C 73.089844 268.402344 71.230469 268.96875 69.746094 270.164062 C 68.265625 271.355469 67.324219 273.085938 67.117188 274.980469 L 62.65625 316.363281 C 62.34375 319.242188 63.800781 322.027344 66.34375 323.414062 C 67.425781 324 68.605469 324.296875 69.785156 324.296875 C 71.386719 324.296875 72.980469 323.757812 74.285156 322.707031 L 95.078125 305.972656 C 122.074219 326.613281 154.820312 337.265625 187.796875 337.253906 C 221.335938 337.253906 255.097656 326.265625 283.191406 303.648438 C 335.539062 261.5 354.128906 188.777344 328.398438 126.796875 Z M 328.398438 126.796875 " fill-opacity="1" fill-rule="nonzero"/></g></svg>